<!-- <svg xmlns="http://www.w3.org/2000/svg" fill="none" viewBox="0 0 24 24" stroke-width="1.5" stroke="red" class="size-6">
  <path stroke-linecap="round" stroke-linejoin="round" d="M15.75 9V5.25A2.25 2.25 0 0 0 13.5 3h-6a2.25 2.25 0 0 0-2.25 2.25v13.5A2.25 2.25 0 0 0 7.5 21h6a2.25 2.25 0 0 0 2.25-2.25V15m3 0 3-3m0 0-3-3m3 3H9" />
</svg> -->
<!-- icon666.com - MILLIONS vector ICONS FREE --><svg viewBox="0 0 24 24" xmlns="http://www.w3.org/2000/svg"><g id="Logout"><path d="m19 2h-6a1 1 0 0 0 0 2h6a1 1 0 0 1 1 1v14a1 1 0 0 1 -1 1h-6a1 1 0 0 0 0 2h6a3 3 0 0 0 3-3v-14a3 3 0 0 0 -3-3z" fill="#000000" style="fill: rgb(230, 10, 10);"></path><path d="m7.707 15.293a1 1 0 1 1 -1.414 1.414l-4-4a1 1 0 0 1 0-1.414l4-4a1 1 0 1 1 1.414 1.414l-2.293 2.293h11.586a1 1 0 0 1 0 2h-11.586z" fill="#000000" style="fill: rgb(230, 10, 10);"></path></g></svg>