<!-- icon666.com - MILLIONS vector ICONS FREE --><svg viewBox="0 0 64 64" xmlns="http://www.w3.org/2000/svg"><g id="Layer_48" data-name="Layer 48"><path d="m15 3h30v58h-30z" fill="#004fac"></path><path d="m15 15v46h-12v-40z" fill="#ed1c24" style="fill: rgb(228, 7, 14);"></path><path d="m13 16v45h2v-46z" fill="#d80027"></path><path d="m7 33h4v4h-4z" fill="#f1f2f2"></path><path d="m7 41h4v4h-4z" fill="#f1f2f2"></path><path d="m7 49h4v4h-4z" fill="#f1f2f2"></path><path d="m7 25h4v4h-4z" fill="#f1f2f2"></path><path d="m19 43h22v4h-22z" fill="#ed1c24" style="fill: rgb(228, 7, 14);"></path><g fill="#f1f2f2"><path d="m36 25h4v4h-4z" fill="#f1f2f2"></path><path d="m28 25h4v4h-4z" fill="#f1f2f2"></path><path d="m20 25h4v4h-4z" fill="#f1f2f2"></path><path d="m36 33h4v4h-4z" fill="#f1f2f2"></path><path d="m28 33h4v4h-4z" fill="#f1f2f2"></path><path d="m20 33h4v4h-4z" fill="#f1f2f2"></path><path d="m28 17h4v4h-4z" fill="#f1f2f2"></path><path d="m36 17h4v4h-4z" fill="#f1f2f2"></path><path d="m20 17h4v4h-4z" fill="#f1f2f2"></path><path d="m28 9h4v4h-4z" fill="#f1f2f2"></path><path d="m36 9h4v4h-4z" fill="#f1f2f2"></path><path d="m20 9h4v4h-4z" fill="#f1f2f2"></path></g><path d="m30 47v14h5 4v-14z" fill="#57a4ff"></path><path d="m21 47h9v14h-9z" fill="#9bc9ff"></path><path d="m54 50h2v10h-2z" fill="#8b5e3c"></path><path d="m45 59h16a1 1 0 0 1 1 1 1 1 0 0 1 -1 1h-16a0 0 0 0 1 0 0v-2a0 0 0 0 1 0 0z" fill="#58595b"></path><path d="m61 47a5.989 5.989 0 0 0 -2.58-4.93 3.987 3.987 0 0 0 -1.65-5.65 2.964 2.964 0 0 0 1.23-2.42 3 3 0 0 0 -6 0 2.964 2.964 0 0 0 1.23 2.42 3.987 3.987 0 0 0 -1.65 5.65 6 6 0 1 0 9.42 4.93z" fill="#5eac24"></path></g></svg>